
<svg
   xmlns:dc="http://purl.org/dc/elements/1.1/"
   xmlns:cc="http://creativecommons.org/ns#"
   xmlns:rdf="http://www.w3.org/1999/02/22-rdf-syntax-ns#"
   xmlns:svg="http://www.w3.org/2000/svg"
   xmlns="http://www.w3.org/2000/svg"
   xmlns:sodipodi="http://sodipodi.sourceforge.net/DTD/sodipodi-0.dtd"
   xmlns:inkscape="http://www.inkscape.org/namespaces/inkscape"
   width="210mm"
   height="297mm"
   viewBox="50 100 70 87"
   version="1.1"
   id="svg8"
   inkscape:version="1.0.2-2 (e86c870879, 2021-01-15)"
   sodipodi:docname="рисунок.svg">
  <defs
     id="defs2" />
  <sodipodi:namedview
     id="base"
     pagecolor="#ffffff"
     bordercolor="#666666"
     borderopacity="1.0"
     inkscape:pageopacity="0.0"
     inkscape:pageshadow="2"
     inkscape:zoom="0.98994949"
     inkscape:cx="116.25986"
     inkscape:cy="565.50537"
     inkscape:document-units="mm"
     inkscape:current-layer="layer1"
     inkscape:document-rotation="0"
     showgrid="false"
     inkscape:window-width="1898"
     inkscape:window-height="1020"
     inkscape:window-x="0"
     inkscape:window-y="0"
     inkscape:window-maximized="0" />
  <metadata
     id="metadata5">
    <rdf:RDF>
      <cc:Work
         rdf:about="">
        <dc:format>image/svg+xml</dc:format>
        <dc:type
           rdf:resource="http://purl.org/dc/dcmitype/StillImage" />
        <dc:title></dc:title>
      </cc:Work>
    </rdf:RDF>
  </metadata>
  <g
     inkscape:label="Слой 1"
     inkscape:groupmode="layer"
     id="layer1">
    <path
       style="fill:#708160;fill-opacity:1;stroke-width:0.190495"
       id="path837"
       d="m 57.916359,122.44903 c 0.762418,1.53809 1.522851,3.04779 2.22005,4.7683 0.686888,1.45529 1.371778,2.91631 2.053213,4.39072 0.595643,1.11006 1.180621,2.2795 1.784018,3.34827 0.727134,1.00961 1.297929,2.58553 1.955447,3.88296 0.607982,1.15532 1.20526,2.3479 1.80513,3.53465 0.664731,1.38385 1.321665,2.75827 2.003704,4.08237 0.673392,1.56728 1.40918,2.91691 2.132102,4.31805 0.122178,0.25033 0.24436,0.50063 0.366542,0.75096 0,0 1.024425,-3.28297 1.024425,-3.28297 v 0 c -0.125285,-0.25566 -0.250569,-0.51134 -0.375852,-0.767 -0.72141,-1.40734 -1.456263,-2.76065 -2.130962,-4.3233 -0.681168,-1.32222 -1.335644,-2.70038 -1.997189,-4.08932 -0.601752,-1.18237 -1.197033,-2.38308 -1.808417,-3.52822 -0.66543,-1.29824 -1.236854,-2.91514 -1.972659,-3.9254 -0.593075,-1.03625 -1.158449,-2.21745 -1.750007,-3.27108 -0.675157,-1.45573 -1.353331,-2.90031 -2.033175,-4.33873 -0.7075,-1.71571 -1.474219,-3.23459 -2.226093,-4.82809 0,0 -1.050277,3.27783 -1.050277,3.27783 z" />
    <path
       style="fill:#931A25;fill-opacity:1;stroke-width:0.233833"
       id="path845"
       d="m 84.868365,122.33425 c 0.02641,2.05394 0.02729,4.10829 0.03322,6.16246 0.0039,2.80352 0.003,5.60705 0.0052,8.41058 -0.0015,3.16494 0.0099,6.32988 0.0096,9.49481 -0.02132,3.47459 0.01543,6.94899 0.0082,10.42363 0.0013,2.52459 -0.03752,5.04892 -0.03801,7.57347 1.96e-4,0.31219 4.13e-4,0.62439 6.21e-4,0.93659 0,0 3.276207,-2.13722 3.276207,-2.13722 v 0 c 1.95e-4,-0.31245 4.12e-4,-0.6249 6.19e-4,-0.93736 -4.13e-4,-2.508 -0.03937,-5.0158 -0.03801,-7.52386 -0.0072,-3.4782 0.02951,-6.95616 0.0082,-10.43431 -2.06e-4,-3.1691 0.01102,-6.3382 0.0096,-9.50731 0.0022,-2.80579 0.0012,-5.61158 0.0052,-8.41736 0.006,-2.06862 0.0069,-4.13741 0.03322,-6.20581 0,0 -3.313731,2.16169 -3.313731,2.16169 z" />
    <path
       style="fill:#931A25;fill-opacity:1;stroke-width:0.244915"
       id="path845-8"
       d="m 91.704526,121.29002 c 0.0273,2.17887 0.02818,4.35818 0.03433,6.53729 0.0041,2.97405 0.0033,5.94811 0.0056,8.92216 -0.0016,3.35745 0.01025,6.7149 0.0099,10.07234 -0.02205,3.68594 0.01592,7.37167 0.0085,11.05766 0.0016,2.67815 -0.03877,5.35602 -0.03933,8.03413 2.02e-4,0.33118 4.58e-4,0.66237 6.24e-4,0.99356 0,0 3.388001,-2.26722 3.388001,-2.26722 v 0 c 2.01e-4,-0.33145 4.02e-4,-0.66291 7.9e-4,-0.99437 -4.01e-4,-2.66056 -0.04071,-5.32089 -0.03934,-7.98151 -0.0073,-3.68976 0.03053,-7.37927 0.0085,-11.06898 -2.09e-4,-3.36187 0.01138,-6.72373 0.0099,-10.0856 0.0024,-2.97646 0.0016,-5.95291 0.0056,-8.92936 0.0065,-2.19444 0.0073,-4.38907 0.03432,-6.58328 0,0 -3.426805,2.29318 -3.426805,2.29318 z" />
    <circle
       id="path887"
       style="fill:#ffaaaa;stroke:#000000;stroke-width:0.264583"
       cx="113.95982"
       cy="133.4256"
       r="0.014985928" />
    <circle
       id="path895"
       style="fill:#ffaaaa;stroke:#000000;stroke-width:0.264583"
       cx="122.0863"
       cy="144.00893"
       r="0.019981239" />
    <path
       style="fill:#708160;fill-opacity:1;stroke-width:0.190495"
       id="path837-0"
       d="m 124.55516,144.3 c -1.40458,0.987 -2.78139,1.96772 -4.37617,2.91794 -1.3342,0.89979 -2.67437,1.79846 -4.02829,2.69575 -1.00681,0.75719 -2.07393,1.51287 -3.03876,2.27147 -0.88757,0.87192 -2.35862,1.67526 -3.54124,2.52206 -1.04967,0.77626 -2.1378,1.5476 -3.21977,2.32062 -1.26695,0.86703 -2.52576,1.72493 -3.73102,2.60001 -1.44694,0.90343 -2.66928,1.83551 -3.94449,2.76269 -0.22889,0.15875 -0.45775,0.3175 -0.686637,0.47625 0,0 3.400407,0.51436 3.400407,0.51436 v 0 c 0.23369,-0.16263 0.4674,-0.32526 0.70108,-0.48789 1.28157,-0.92662 2.50768,-1.85834 3.94985,-2.76237 1.20353,-0.87392 2.46641,-1.72996 3.73888,-2.59462 1.07735,-0.77422 2.17382,-1.54482 3.21292,-2.3229 1.18222,-0.85473 2.69368,-1.66492 3.58057,-2.54551 0.93425,-0.74346 2.01597,-1.48154 2.96763,-2.22614 1.33641,-0.88824 2.66134,-1.77779 3.97994,-2.66804 1.58847,-0.95967 2.9734,-1.94801 4.43435,-2.933 0,0 -3.39925,-0.54068 -3.39925,-0.54068 z" />
    <path
       style="fill:#708160;fill-opacity:1;stroke-width:0.190495"
       id="path837-8"
       d="m 98.78517,124.6428 c 1.36758,1.03765 2.72074,2.05077 4.11116,3.2808 1.26308,0.99715 2.52693,2.00032 3.79363,3.01702 1.02766,0.72867 2.07219,1.51526 3.0884,2.20351 1.10065,0.58018 2.3135,1.73704 3.47999,2.60592 1.05885,0.7637 2.12471,1.56553 3.1903,2.36099 1.21142,0.94305 2.41167,1.88113 3.61199,2.76298 1.30087,1.10343 2.56068,1.9842 3.83191,2.91682 0.22087,0.16973 0.44173,0.33944 0.66261,0.50916 0,0 -0.5447,-3.39567 -0.5447,-3.39567 v 0 c -0.22603,-0.17313 -0.45206,-0.34626 -0.67809,-0.51939 -1.27263,-0.93884 -2.53325,-1.82332 -3.83323,-2.92203 -1.1987,-0.88055 -2.39842,-1.82307 -3.60926,-2.7721 -1.06531,-0.79069 -2.133,-1.60069 -3.19037,-2.35376 -1.17393,-0.86609 -2.4056,-2.05936 -3.5143,-2.63626 -0.99248,-0.66373 -2.02471,-1.46958 -3.02356,-2.14954 -1.25278,-1.00277 -2.5033,-1.99421 -3.75255,-2.97939 -1.39751,-1.22115 -2.76039,-2.23969 -4.1432,-3.33165 0,0 0.51927,3.40259 0.51927,3.40259 z" />
    <path
       style="fill:#708160;fill-opacity:1;stroke-width:0.125161"
       id="path837-5"
       d="m 31.104786,152.08954 c 0.590403,0.75598 1.18382,1.50222 1.665137,2.29355 0.518932,0.70325 1.034497,1.40762 1.543585,2.11507 0.478344,0.56143 0.933336,1.13806 1.428304,1.68905 0.648403,0.57532 1.011233,1.27649 1.525821,1.9192 0.484098,0.58016 0.948926,1.16846 1.41782,1.75581 0.506766,0.67276 1.006318,1.33979 1.54415,1.99955 0.482505,0.73422 1.077426,1.42087 1.64793,2.11944 0.0939,0.12237 0.187798,0.24474 0.2817,0.36711 0,0 1.791425,-0.68839 1.791425,-0.68839 v 0 c -0.09647,-0.12516 -0.192944,-0.25032 -0.289416,-0.37548 -0.567606,-0.70002 -1.160768,-1.38751 -1.645643,-2.12071 -0.537179,-0.65886 -1.033204,-1.32623 -1.535351,-1.9995 -0.47188,-0.58661 -0.932896,-1.17679 -1.422807,-1.75489 -0.523542,-0.64574 -0.879446,-1.36019 -1.537707,-1.93873 -0.489159,-0.53703 -0.919397,-1.11057 -1.403568,-1.6526 -0.50535,-0.6993 -1.016255,-1.3961 -1.530226,-2.09152 -0.494065,-0.7934 -1.093001,-1.54476 -1.660934,-2.3147 0,0 -1.82022,0.67774 -1.82022,0.67774 z" />
    <path
       style="fill:#708160;fill-opacity:1;stroke-width:0.267227"
       id="path837-8-3"
       d="m 46.26545,164.9144 c 1.083228,-2.3501 2.138345,-4.67296 3.454646,-7.09381 1.048094,-2.1775 2.103473,-4.3573 3.17507,-6.54405 0.751269,-1.75677 1.571315,-3.55066 2.274544,-5.28203 0.558704,-1.8455 1.809961,-3.9723 2.714023,-5.97393 0.789931,-1.81241 1.625712,-3.64277 2.453706,-5.47156 0.988872,-2.08604 1.973202,-4.15352 2.888465,-6.211 1.173336,-2.25641 2.078958,-4.40779 3.046662,-6.58656 0.17758,-0.37993 0.355137,-0.75984 0.532704,-1.1398 0,0 -4.094165,1.4729 -4.094165,1.4729 v 0 c -0.181035,0.3887 -0.36207,0.77742 -0.543104,1.16612 -0.975147,2.18212 -1.885213,4.33544 -3.052876,6.58959 -0.913893,2.05468 -1.903749,4.12212 -2.900046,6.20832 -0.822176,1.82749 -1.667734,3.66223 -2.444818,5.47039 -0.899595,2.01288 -2.192937,4.176 -2.746489,6.03364 -0.676433,1.68943 -1.52185,3.46733 -2.217325,5.16976 -1.056434,2.16222 -2.099271,4.31882 -3.134596,6.47229 -1.304404,2.43046 -2.36482,4.76969 -3.512618,7.15365 0,0 4.106217,-1.43392 4.106217,-1.43392 z" />
    <path
       style="fill:#708160;fill-opacity:1;stroke-width:0.0988089"
       id="path837-5-1"
       d="m 71.330123,152.78879 c 0.469383,-0.59291 0.93078,-1.18639 1.447124,-1.7014 0.442183,-0.52815 0.885838,-1.0539 1.333033,-1.5752 0.341294,-0.47114 0.69847,-0.92699 1.028743,-1.40908 0.320787,-0.60505 0.789944,-1.01221 1.18669,-1.52605 0.354546,-0.47898 0.718835,-0.94453 1.081651,-1.41305 0.421123,-0.51324 0.839187,-1.01986 1.2447,-1.55475 0.472503,-0.5056 0.769995,-1.04222 1.199171,-1.60937 0.07633,-0.0947 0.346965,-0.3313 0.346965,-0.3313 l 0.138647,-0.50372 -0.138647,0.50372 c 0.890654,-1.74543 1.683657,-4.08913 1.605711,-3.99195 -0.430815,0.56517 -3.54046,4.17163 -4.011751,4.67888 -0.404952,0.53423 -0.823924,1.03819 -1.246281,1.54794 -0.361705,0.4707 -0.728122,0.93365 -1.080038,1.41674 -0.397414,0.52131 -0.877978,0.92552 -1.199423,1.53877 -0.320681,0.47508 -0.68002,0.91124 -1.005428,1.38337 -0.441661,0.51694 -0.880389,1.03772 -1.317495,1.56062 -0.515598,0.52524 -0.979887,1.12391 -1.464046,1.70198 z"
       sodipodi:nodetypes="cccccccccccccccccccc" />
  </g>
</svg>
